<?xml version="1.0" encoding="UTF-8" standalone="no"?>
<svg
   xmlns:dc="http://purl.org/dc/elements/1.1/"
   xmlns:cc="http://creativecommons.org/ns#"
   xmlns:rdf="http://www.w3.org/1999/02/22-rdf-syntax-ns#"
   xmlns:svg="http://www.w3.org/2000/svg"
   xmlns="http://www.w3.org/2000/svg"
   xmlns:sodipodi="http://sodipodi.sourceforge.net/DTD/sodipodi-0.dtd"
   xmlns:inkscape="http://www.inkscape.org/namespaces/inkscape"
   inkscape:version="1.0 (4035a4fb49, 2020-05-01)"
   inkscape:export-ydpi="66.669998"
   inkscape:export-xdpi="66.669998"
   inkscape:export-filename="D:\workspace\aboutme\images\icons\linkedin.png"
   sodipodi:docname="LinkedIn_icon.svg"
   id="svg8"
   version="1.1"
   width="72"
   viewBox="0 0 72 72"
   height="72">
  <metadata
     id="metadata14">
    <rdf:RDF>
      <cc:Work
         rdf:about="">
        <dc:format>image/svg+xml</dc:format>
        <dc:type
           rdf:resource="http://purl.org/dc/dcmitype/StillImage" />
        <dc:title></dc:title>
      </cc:Work>
    </rdf:RDF>
  </metadata>
  <defs
     id="defs12" />
  <sodipodi:namedview
     inkscape:current-layer="svg8"
     inkscape:window-maximized="1"
     inkscape:window-y="-9"
     inkscape:window-x="-9"
     inkscape:cy="39.543769"
     inkscape:cx="36.678664"
     inkscape:zoom="9.8994949"
     inkscape:pagecheckerboard="true"
     showgrid="false"
     id="namedview10"
     inkscape:window-height="1361"
     inkscape:window-width="2560"
     inkscape:pageshadow="2"
     inkscape:pageopacity="0"
     guidetolerance="10"
     gridtolerance="10"
     objecttolerance="10"
     borderopacity="1"
     bordercolor="#666666"
     pagecolor="#ffffff" />
  <path
     d="M 8 0 C 3.581722 0 0 3.581722 0 8 L 0 64 C 0 68.418278 3.581722 72 8 72 L 64 72 C 68.418278 72 72 68.418278 72 64 L 72 8 C 72 3.581722 68.418278 0 64 0 L 8 0 z M 16.349609 10 C 19.856901 10 22.697266 12.863834 22.697266 16.396484 C 22.697266 19.929134 19.856901 22.794922 16.349609 22.794922 C 12.842317 22.794922 10 19.929134 10 16.396484 C 10 12.863834 12.842317 10 16.349609 10 z M 49.382812 26.273438 C 56.735937 26.273438 62 30.76404 62 40.050781 L 62 62 L 51.316406 62 L 51.316406 43.802734 C 51.316406 38.813373 49.419792 36.025391 45.470703 36.025391 C 41.174609 36.025391 38.929687 38.926729 38.929688 43.802734 L 38.929688 62 L 28.632812 62 L 28.632812 27.333984 L 38.929688 27.333984 L 38.929688 32.001953 C 38.929688 32.001953 42.026302 26.273438 49.382812 26.273438 z M 11.033203 27.333984 L 21.769531 27.333984 L 21.769531 62 L 11.033203 62 L 11.033203 27.333984 z "
     style="fill:#01bfcb;fill-opacity:1;fill-rule:evenodd"
     id="path2" />
</svg>
