<?xml version="1.0" encoding="UTF-8" standalone="no"?>
<svg
   xmlns:dc="http://purl.org/dc/elements/1.1/"
   xmlns:cc="http://creativecommons.org/ns#"
   xmlns:rdf="http://www.w3.org/1999/02/22-rdf-syntax-ns#"
   xmlns:svg="http://www.w3.org/2000/svg"
   xmlns="http://www.w3.org/2000/svg"
   xmlns:sodipodi="http://sodipodi.sourceforge.net/DTD/sodipodi-0.dtd"
   xmlns:inkscape="http://www.inkscape.org/namespaces/inkscape"
   inkscape:version="1.0 (4035a4fb49, 2020-05-01)"
   inkscape:export-ydpi="149.81273"
   inkscape:export-xdpi="149.81273"
   inkscape:export-filename="D:\workspace\aboutme\images\icons\researchgate.png"
   sodipodi:docname="ResearchGate_icon_SVG.svg"
   id="svg12"
   viewBox="0 0 32 32"
   style="shape-rendering:geometricPrecision; text-rendering:geometricPrecision; image-rendering:optimizeQuality; fill-rule:evenodd; clip-rule:evenodd"
   version="1.1"
   height="32px"
   width="32px"
   xml:space="preserve"><metadata
   id="metadata16"><rdf:RDF><cc:Work
       rdf:about=""><dc:format>image/svg+xml</dc:format><dc:type
         rdf:resource="http://purl.org/dc/dcmitype/StillImage" /><dc:title></dc:title></cc:Work></rdf:RDF></metadata><sodipodi:namedview
   inkscape:current-layer="Capa_x0020_1"
   inkscape:window-maximized="1"
   inkscape:window-y="-9"
   inkscape:window-x="-9"
   inkscape:cy="17.379118"
   inkscape:cx="15.574945"
   inkscape:zoom="22.273864"
   inkscape:pagecheckerboard="true"
   showgrid="false"
   id="namedview14"
   inkscape:window-height="1361"
   inkscape:window-width="2560"
   inkscape:pageshadow="2"
   inkscape:pageopacity="0"
   guidetolerance="10"
   gridtolerance="10"
   objecttolerance="10"
   borderopacity="1"
   bordercolor="#666666"
   pagecolor="#ffffff" />
 <defs
   id="defs4">
  <style
   id="style2"
   type="text/css">
   <![CDATA[
    .fil0 {fill:#04D4AC;fill-rule:nonzero}
    .fil1 {fill:white;fill-rule:nonzero}
   ]]>
  </style>
 </defs>
 <g
   id="Capa_x0020_1">
  <metadata
   id="CorelCorpID_0Corel-Layer" />
  <path
   d="M 16.019531 -0.060546875 C 7.1695312 -0.060546875 0 7.1207031 0 15.970703 C 2.3684758e-15 24.820703 7.1695313 32 16.019531 32 C 24.859531 32 32.039062 24.820703 32.039062 15.970703 C 32.039062 7.1207031 24.859531 -0.060546875 16.019531 -0.060546875 z M 21.777344 7.8515625 C 22.567344 7.8828125 23.347578 8.1711719 23.767578 8.7011719 C 24.127578 9.1511719 24.097656 9.2914062 23.597656 9.4414062 C 23.207656 9.5714063 23.207656 9.5709375 22.847656 9.2109375 C 21.997656 8.3909375 20.527578 8.69 20.267578 9.75 C 20.137578 10.22 20.147344 12.210156 20.277344 12.660156 C 20.627344 13.930156 22.737656 13.930156 23.097656 12.660156 C 23.317656 11.850156 23.266875 11.790234 22.296875 11.740234 C 21.826875 11.720234 21.826172 11.720078 21.826172 11.330078 C 21.826172 10.950078 21.827266 10.949922 22.947266 10.919922 C 24.397266 10.889922 24.376641 10.869687 24.306641 11.929688 C 24.216641 13.259688 23.856328 13.90125 22.986328 14.28125 C 22.416328 14.52125 21.637109 14.61 21.037109 14.5 C 19.487109 14.21 18.976641 13.260313 19.056641 10.820312 C 19.096641 9.4703127 19.206562 9.1010156 19.726562 8.5410156 C 20.186563 8.0460156 20.987344 7.8203125 21.777344 7.8515625 z M 13.130859 11.808594 C 15.108047 11.856406 15.736875 12.110078 16.546875 12.830078 C 17.676875 13.840078 17.837501 15.379923 16.9375 16.669922 C 16.5375 17.249922 15.737187 17.869609 15.117188 18.099609 C 14.827188 18.209609 14.587891 18.331094 14.587891 18.371094 C 14.587891 18.491094 15.506172 19.8 16.076172 20.5 C 17.596172 22.35 18.417578 23.071016 19.267578 23.291016 C 19.797578 23.431016 19.946875 23.579844 19.796875 23.839844 C 19.636875 24.109844 18.836484 24.170469 17.896484 23.980469 C 16.466483 23.700469 15.617266 22.870391 13.447266 19.650391 C 12.727266 18.570391 12.727344 18.569531 12.027344 18.519531 C 10.997344 18.449531 11.077422 18.271016 11.107422 20.541016 C 11.147422 23.121016 11.117422 23.060547 12.607422 23.310547 C 12.997422 23.370547 13.027344 23.400859 13.027344 23.630859 C 13.027344 23.890859 13.02625 23.890156 10.40625 23.910156 C 7.9462501 23.930156 7.7863281 23.919531 7.7363281 23.769531 C 7.6363281 23.479531 7.7861719 23.340234 8.3261719 23.240234 C 8.9361719 23.130234 9.2578906 22.880938 9.3378906 22.460938 C 9.3778906 22.300937 9.3871875 20.140156 9.3671875 17.660156 C 9.3371875 12.450157 9.3975 12.760781 8.4375 12.550781 C 7.8375 12.420781 7.6465625 12.281016 7.7265625 12.041016 C 7.7865625 11.881016 7.9164845 11.870312 10.646484 11.820312 C 11.661484 11.800313 12.471797 11.792656 13.130859 11.808594 z M 12.466797 12.75 C 11.136797 12.75 11.137187 12.750547 11.117188 15.060547 C 11.097188 16.330547 11.106719 17.430234 11.136719 17.490234 C 11.226719 17.700234 13.476406 17.589609 14.066406 17.349609 C 16.066406 16.529609 16.216406 13.780703 14.316406 12.970703 C 13.826406 12.760703 13.696797 12.75 12.466797 12.75 z "
   style="fill:#00c9cc;fill-opacity:1"
   id="path7" />
  
 </g>
</svg>
